<mxfile host="app.diagrams.net" modified="2024-04-30T16:01:33.411Z" agent="Mozilla/5.0 (Windows NT 10.0; Win64; x64) AppleWebKit/537.36 (KHTML, like Gecko) Chrome/124.0.0.0 Safari/537.36 Edg/124.0.0.0" etag="IsH3pmlAKGFnYnO0BzRm" version="24.2.8" type="github">
  <diagram name="Page-1" id="5f0bae14-7c28-e335-631c-24af17079c00">
    <mxGraphModel dx="1501" dy="791" grid="1" gridSize="10" guides="1" tooltips="1" connect="1" arrows="1" fold="1" page="1" pageScale="1" pageWidth="1100" pageHeight="850" background="none" math="0" shadow="0">
      <root>
        <mxCell id="0" />
        <mxCell id="1" parent="0" />
        <mxCell id="3zn6VCPHZys1SZbJKGIV-1" value="" style="whiteSpace=wrap;html=1;aspect=fixed;" vertex="1" parent="1">
          <mxGeometry x="510" y="290" width="260" height="260" as="geometry" />
        </mxCell>
        <mxCell id="3zn6VCPHZys1SZbJKGIV-41" value="Si no esta&amp;nbsp;&lt;div&gt;registrado&lt;/div&gt;" style="edgeStyle=orthogonalEdgeStyle;rounded=0;orthogonalLoop=1;jettySize=auto;html=1;fillColor=#f8cecc;strokeColor=#b85450;" edge="1" parent="1" source="3zn6VCPHZys1SZbJKGIV-6" target="3zn6VCPHZys1SZbJKGIV-35">
          <mxGeometry relative="1" as="geometry" />
        </mxCell>
        <mxCell id="3zn6VCPHZys1SZbJKGIV-55" style="edgeStyle=orthogonalEdgeStyle;rounded=0;orthogonalLoop=1;jettySize=auto;html=1;fillColor=#f8cecc;strokeColor=#b85450;" edge="1" parent="1" source="3zn6VCPHZys1SZbJKGIV-6" target="3zn6VCPHZys1SZbJKGIV-22">
          <mxGeometry relative="1" as="geometry">
            <Array as="points">
              <mxPoint x="533" y="650" />
              <mxPoint x="565" y="650" />
            </Array>
          </mxGeometry>
        </mxCell>
        <mxCell id="3zn6VCPHZys1SZbJKGIV-57" style="edgeStyle=orthogonalEdgeStyle;rounded=0;orthogonalLoop=1;jettySize=auto;html=1;fillColor=#f8cecc;strokeColor=#b85450;" edge="1" parent="1" source="3zn6VCPHZys1SZbJKGIV-6" target="3zn6VCPHZys1SZbJKGIV-23">
          <mxGeometry relative="1" as="geometry">
            <Array as="points">
              <mxPoint x="533" y="650" />
              <mxPoint x="815" y="650" />
            </Array>
          </mxGeometry>
        </mxCell>
        <mxCell id="3zn6VCPHZys1SZbJKGIV-61" style="edgeStyle=orthogonalEdgeStyle;rounded=0;orthogonalLoop=1;jettySize=auto;html=1;fillColor=#dae8fc;strokeColor=#6c8ebf;" edge="1" parent="1" source="3zn6VCPHZys1SZbJKGIV-6" target="3zn6VCPHZys1SZbJKGIV-11">
          <mxGeometry relative="1" as="geometry" />
        </mxCell>
        <mxCell id="3zn6VCPHZys1SZbJKGIV-6" value="Login page" style="whiteSpace=wrap;html=1;aspect=fixed;" vertex="1" parent="1">
          <mxGeometry x="500" y="355" width="65" height="65" as="geometry" />
        </mxCell>
        <mxCell id="3zn6VCPHZys1SZbJKGIV-31" style="edgeStyle=orthogonalEdgeStyle;rounded=0;orthogonalLoop=1;jettySize=auto;html=1;fillColor=#f8cecc;strokeColor=#b85450;" edge="1" parent="1" source="3zn6VCPHZys1SZbJKGIV-9" target="3zn6VCPHZys1SZbJKGIV-6">
          <mxGeometry relative="1" as="geometry" />
        </mxCell>
        <mxCell id="3zn6VCPHZys1SZbJKGIV-9" value="Home Page&lt;div&gt;(Client)&lt;/div&gt;" style="whiteSpace=wrap;html=1;aspect=fixed;" vertex="1" parent="1">
          <mxGeometry x="320" y="332.5" width="110" height="110" as="geometry" />
        </mxCell>
        <mxCell id="3zn6VCPHZys1SZbJKGIV-62" style="edgeStyle=orthogonalEdgeStyle;rounded=0;orthogonalLoop=1;jettySize=auto;html=1;fillColor=#dae8fc;strokeColor=#6c8ebf;" edge="1" parent="1" source="3zn6VCPHZys1SZbJKGIV-11" target="3zn6VCPHZys1SZbJKGIV-35">
          <mxGeometry relative="1" as="geometry" />
        </mxCell>
        <mxCell id="3zn6VCPHZys1SZbJKGIV-63" style="edgeStyle=orthogonalEdgeStyle;rounded=0;orthogonalLoop=1;jettySize=auto;html=1;fillColor=#dae8fc;strokeColor=#6c8ebf;" edge="1" parent="1" source="3zn6VCPHZys1SZbJKGIV-11" target="3zn6VCPHZys1SZbJKGIV-24">
          <mxGeometry relative="1" as="geometry">
            <Array as="points" />
          </mxGeometry>
        </mxCell>
        <mxCell id="3zn6VCPHZys1SZbJKGIV-65" style="edgeStyle=orthogonalEdgeStyle;rounded=0;orthogonalLoop=1;jettySize=auto;html=1;entryX=0;entryY=0.5;entryDx=0;entryDy=0;fillColor=#dae8fc;strokeColor=#6c8ebf;" edge="1" parent="1" source="3zn6VCPHZys1SZbJKGIV-11" target="3zn6VCPHZys1SZbJKGIV-64">
          <mxGeometry relative="1" as="geometry">
            <Array as="points">
              <mxPoint x="800" y="188" />
              <mxPoint x="800" y="75" />
            </Array>
          </mxGeometry>
        </mxCell>
        <mxCell id="3zn6VCPHZys1SZbJKGIV-67" style="edgeStyle=orthogonalEdgeStyle;rounded=0;orthogonalLoop=1;jettySize=auto;html=1;entryX=0;entryY=0.5;entryDx=0;entryDy=0;fillColor=#dae8fc;strokeColor=#6c8ebf;" edge="1" parent="1" source="3zn6VCPHZys1SZbJKGIV-11" target="3zn6VCPHZys1SZbJKGIV-66">
          <mxGeometry relative="1" as="geometry">
            <Array as="points">
              <mxPoint x="800" y="188" />
              <mxPoint x="800" y="310" />
            </Array>
          </mxGeometry>
        </mxCell>
        <mxCell id="3zn6VCPHZys1SZbJKGIV-11" value="Home Page&lt;div&gt;(Admin)&lt;/div&gt;" style="whiteSpace=wrap;html=1;aspect=fixed;" vertex="1" parent="1">
          <mxGeometry x="550" y="120" width="135" height="135" as="geometry" />
        </mxCell>
        <mxCell id="3zn6VCPHZys1SZbJKGIV-60" style="edgeStyle=orthogonalEdgeStyle;rounded=0;orthogonalLoop=1;jettySize=auto;html=1;fillColor=#dae8fc;strokeColor=#6c8ebf;" edge="1" parent="1" source="3zn6VCPHZys1SZbJKGIV-14" target="3zn6VCPHZys1SZbJKGIV-6">
          <mxGeometry relative="1" as="geometry" />
        </mxCell>
        <mxCell id="3zn6VCPHZys1SZbJKGIV-14" value="Admin" style="shape=umlActor;verticalLabelPosition=bottom;verticalAlign=top;html=1;outlineConnect=0;fillColor=#dae8fc;strokeColor=#6c8ebf;" vertex="1" parent="1">
          <mxGeometry x="360" y="170" width="30" height="60" as="geometry" />
        </mxCell>
        <mxCell id="3zn6VCPHZys1SZbJKGIV-21" style="edgeStyle=orthogonalEdgeStyle;rounded=0;orthogonalLoop=1;jettySize=auto;html=1;fillColor=#f8cecc;strokeColor=#b85450;" edge="1" parent="1" source="3zn6VCPHZys1SZbJKGIV-20" target="3zn6VCPHZys1SZbJKGIV-9">
          <mxGeometry relative="1" as="geometry" />
        </mxCell>
        <mxCell id="3zn6VCPHZys1SZbJKGIV-20" value="&lt;div&gt;Cliente (No registered)&lt;/div&gt;" style="shape=umlActor;verticalLabelPosition=bottom;verticalAlign=top;html=1;outlineConnect=0;fillColor=#f8cecc;strokeColor=#b85450;" vertex="1" parent="1">
          <mxGeometry x="230" y="357.5" width="30" height="60" as="geometry" />
        </mxCell>
        <mxCell id="3zn6VCPHZys1SZbJKGIV-22" value="Interfaz de reservas clase gratis" style="whiteSpace=wrap;html=1;aspect=fixed;" vertex="1" parent="1">
          <mxGeometry x="520" y="770" width="90" height="90" as="geometry" />
        </mxCell>
        <mxCell id="3zn6VCPHZys1SZbJKGIV-23" value="Interfaz de pagos" style="whiteSpace=wrap;html=1;aspect=fixed;" vertex="1" parent="1">
          <mxGeometry x="770" y="770" width="90" height="90" as="geometry" />
        </mxCell>
        <mxCell id="3zn6VCPHZys1SZbJKGIV-24" value="Tomar Lista" style="whiteSpace=wrap;html=1;aspect=fixed;" vertex="1" parent="1">
          <mxGeometry x="850" y="142.5" width="90" height="90" as="geometry" />
        </mxCell>
        <mxCell id="3zn6VCPHZys1SZbJKGIV-25" value="Interfaz de seleccion de horarios" style="whiteSpace=wrap;html=1;aspect=fixed;" vertex="1" parent="1">
          <mxGeometry x="650" y="770" width="90" height="90" as="geometry" />
        </mxCell>
        <mxCell id="3zn6VCPHZys1SZbJKGIV-46" style="edgeStyle=orthogonalEdgeStyle;rounded=0;orthogonalLoop=1;jettySize=auto;html=1;fillColor=#f8cecc;strokeColor=#b85450;" edge="1" parent="1" source="3zn6VCPHZys1SZbJKGIV-35" target="3zn6VCPHZys1SZbJKGIV-45">
          <mxGeometry relative="1" as="geometry">
            <Array as="points">
              <mxPoint x="740" y="470" />
            </Array>
          </mxGeometry>
        </mxCell>
        <mxCell id="3zn6VCPHZys1SZbJKGIV-35" value="Interfaz de registro de alumno" style="whiteSpace=wrap;html=1;aspect=fixed;" vertex="1" parent="1">
          <mxGeometry x="710" y="350" width="80" height="80" as="geometry" />
        </mxCell>
        <mxCell id="3zn6VCPHZys1SZbJKGIV-47" style="edgeStyle=orthogonalEdgeStyle;rounded=0;orthogonalLoop=1;jettySize=auto;html=1;fillColor=#f8cecc;strokeColor=#b85450;" edge="1" parent="1" source="3zn6VCPHZys1SZbJKGIV-45" target="3zn6VCPHZys1SZbJKGIV-6">
          <mxGeometry relative="1" as="geometry" />
        </mxCell>
        <mxCell id="3zn6VCPHZys1SZbJKGIV-45" value="Valida registro" style="whiteSpace=wrap;html=1;aspect=fixed;" vertex="1" parent="1">
          <mxGeometry x="600" y="430" width="80" height="80" as="geometry" />
        </mxCell>
        <mxCell id="3zn6VCPHZys1SZbJKGIV-56" style="edgeStyle=orthogonalEdgeStyle;rounded=0;orthogonalLoop=1;jettySize=auto;html=1;entryX=0.421;entryY=0.028;entryDx=0;entryDy=0;entryPerimeter=0;fillColor=#f8cecc;strokeColor=#b85450;" edge="1" parent="1" source="3zn6VCPHZys1SZbJKGIV-6" target="3zn6VCPHZys1SZbJKGIV-25">
          <mxGeometry relative="1" as="geometry">
            <Array as="points">
              <mxPoint x="533" y="650" />
              <mxPoint x="688" y="650" />
            </Array>
          </mxGeometry>
        </mxCell>
        <mxCell id="3zn6VCPHZys1SZbJKGIV-64" value="Ver Reportes" style="whiteSpace=wrap;html=1;aspect=fixed;" vertex="1" parent="1">
          <mxGeometry x="850" y="30" width="90" height="90" as="geometry" />
        </mxCell>
        <mxCell id="3zn6VCPHZys1SZbJKGIV-66" value="Revisar horarios" style="whiteSpace=wrap;html=1;aspect=fixed;" vertex="1" parent="1">
          <mxGeometry x="850" y="265" width="90" height="90" as="geometry" />
        </mxCell>
      </root>
    </mxGraphModel>
  </diagram>
</mxfile>
